<mxfile host="app.diagrams.net" agent="Mozilla/5.0 (Windows NT 10.0; Win64; x64) AppleWebKit/537.36 (KHTML, like Gecko) Chrome/133.0.0.0 Safari/537.36 Edg/133.0.0.0" version="26.0.16">
  <diagram name="Página-1" id="gwshxitbECBefEki7wl6">
    <mxGraphModel grid="1" page="1" gridSize="10" guides="1" tooltips="1" connect="1" arrows="1" fold="1" pageScale="1" pageWidth="827" pageHeight="1169" math="0" shadow="0">
      <root>
        <mxCell id="0" />
        <mxCell id="1" parent="0" />
        <mxCell id="GelH0xdzyuvzbkVBzM3B-1" value="Livro" style="whiteSpace=wrap;html=1;align=center;fillColor=#e1d5e7;strokeColor=#9673a6;" vertex="1" parent="1">
          <mxGeometry x="360" y="210" width="100" height="40" as="geometry" />
        </mxCell>
        <mxCell id="GelH0xdzyuvzbkVBzM3B-54" style="edgeStyle=orthogonalEdgeStyle;rounded=0;orthogonalLoop=1;jettySize=auto;html=1;exitX=0;exitY=0.5;exitDx=0;exitDy=0;entryX=1;entryY=0.5;entryDx=0;entryDy=0;endArrow=none;startFill=0;" edge="1" parent="1" source="GelH0xdzyuvzbkVBzM3B-3" target="GelH0xdzyuvzbkVBzM3B-1">
          <mxGeometry relative="1" as="geometry" />
        </mxCell>
        <mxCell id="GelH0xdzyuvzbkVBzM3B-3" value="Título" style="ellipse;whiteSpace=wrap;html=1;align=center;fillColor=#dae8fc;strokeColor=#6c8ebf;" vertex="1" parent="1">
          <mxGeometry x="500" y="260" width="100" height="40" as="geometry" />
        </mxCell>
        <mxCell id="GelH0xdzyuvzbkVBzM3B-53" style="edgeStyle=orthogonalEdgeStyle;rounded=0;orthogonalLoop=1;jettySize=auto;html=1;exitX=0;exitY=0.5;exitDx=0;exitDy=0;entryX=1;entryY=0.5;entryDx=0;entryDy=0;endArrow=none;startFill=0;" edge="1" parent="1" source="GelH0xdzyuvzbkVBzM3B-4" target="GelH0xdzyuvzbkVBzM3B-1">
          <mxGeometry relative="1" as="geometry" />
        </mxCell>
        <mxCell id="GelH0xdzyuvzbkVBzM3B-4" value="Preço" style="ellipse;whiteSpace=wrap;html=1;align=center;fillColor=#dae8fc;strokeColor=#6c8ebf;" vertex="1" parent="1">
          <mxGeometry x="500" y="310" width="100" height="40" as="geometry" />
        </mxCell>
        <mxCell id="GelH0xdzyuvzbkVBzM3B-55" style="edgeStyle=orthogonalEdgeStyle;rounded=0;orthogonalLoop=1;jettySize=auto;html=1;exitX=0;exitY=0.5;exitDx=0;exitDy=0;entryX=1;entryY=0.5;entryDx=0;entryDy=0;endArrow=none;startFill=0;" edge="1" parent="1" source="GelH0xdzyuvzbkVBzM3B-5" target="GelH0xdzyuvzbkVBzM3B-1">
          <mxGeometry relative="1" as="geometry" />
        </mxCell>
        <mxCell id="GelH0xdzyuvzbkVBzM3B-5" value="Nº de Páginas" style="ellipse;whiteSpace=wrap;html=1;align=center;fillColor=#dae8fc;strokeColor=#6c8ebf;" vertex="1" parent="1">
          <mxGeometry x="500" y="360" width="100" height="40" as="geometry" />
        </mxCell>
        <mxCell id="GelH0xdzyuvzbkVBzM3B-50" style="edgeStyle=orthogonalEdgeStyle;rounded=0;orthogonalLoop=1;jettySize=auto;html=1;exitX=0;exitY=0.5;exitDx=0;exitDy=0;entryX=1;entryY=0.5;entryDx=0;entryDy=0;endArrow=none;startFill=0;" edge="1" parent="1" source="GelH0xdzyuvzbkVBzM3B-13" target="GelH0xdzyuvzbkVBzM3B-1">
          <mxGeometry relative="1" as="geometry" />
        </mxCell>
        <mxCell id="GelH0xdzyuvzbkVBzM3B-13" value="ISBN" style="ellipse;whiteSpace=wrap;html=1;align=center;fontStyle=4;fillColor=#dae8fc;strokeColor=#6c8ebf;" vertex="1" parent="1">
          <mxGeometry x="500" y="210" width="100" height="40" as="geometry" />
        </mxCell>
        <mxCell id="GelH0xdzyuvzbkVBzM3B-14" value="Autor" style="whiteSpace=wrap;html=1;align=center;fillColor=#e1d5e7;strokeColor=#9673a6;" vertex="1" parent="1">
          <mxGeometry x="363" y="420" width="100" height="40" as="geometry" />
        </mxCell>
        <mxCell id="GelH0xdzyuvzbkVBzM3B-56" style="edgeStyle=orthogonalEdgeStyle;rounded=0;orthogonalLoop=1;jettySize=auto;html=1;exitX=0;exitY=0.5;exitDx=0;exitDy=0;entryX=1;entryY=0.5;entryDx=0;entryDy=0;endArrow=none;startFill=0;strokeColor=default;" edge="1" parent="1" source="GelH0xdzyuvzbkVBzM3B-15" target="GelH0xdzyuvzbkVBzM3B-14">
          <mxGeometry relative="1" as="geometry" />
        </mxCell>
        <mxCell id="GelH0xdzyuvzbkVBzM3B-15" value="Código" style="ellipse;whiteSpace=wrap;html=1;align=center;fontStyle=4;fillColor=#dae8fc;strokeColor=#6c8ebf;" vertex="1" parent="1">
          <mxGeometry x="500" y="420" width="100" height="40" as="geometry" />
        </mxCell>
        <mxCell id="GelH0xdzyuvzbkVBzM3B-57" style="edgeStyle=orthogonalEdgeStyle;rounded=0;orthogonalLoop=1;jettySize=auto;html=1;exitX=0;exitY=0.5;exitDx=0;exitDy=0;entryX=1;entryY=0.5;entryDx=0;entryDy=0;endArrow=none;startFill=0;" edge="1" parent="1" source="GelH0xdzyuvzbkVBzM3B-17" target="GelH0xdzyuvzbkVBzM3B-14">
          <mxGeometry relative="1" as="geometry">
            <Array as="points">
              <mxPoint x="480" y="500" />
              <mxPoint x="480" y="440" />
            </Array>
          </mxGeometry>
        </mxCell>
        <mxCell id="GelH0xdzyuvzbkVBzM3B-17" value="Nome" style="ellipse;whiteSpace=wrap;html=1;align=center;fillColor=#dae8fc;strokeColor=#6c8ebf;" vertex="1" parent="1">
          <mxGeometry x="500" y="480" width="100" height="40" as="geometry" />
        </mxCell>
        <mxCell id="GelH0xdzyuvzbkVBzM3B-58" style="edgeStyle=orthogonalEdgeStyle;rounded=0;orthogonalLoop=1;jettySize=auto;html=1;exitX=0;exitY=0.5;exitDx=0;exitDy=0;entryX=1;entryY=0.5;entryDx=0;entryDy=0;endArrow=none;startFill=0;" edge="1" parent="1" source="GelH0xdzyuvzbkVBzM3B-18" target="GelH0xdzyuvzbkVBzM3B-14">
          <mxGeometry relative="1" as="geometry">
            <Array as="points">
              <mxPoint x="480" y="565" />
              <mxPoint x="480" y="440" />
            </Array>
          </mxGeometry>
        </mxCell>
        <mxCell id="GelH0xdzyuvzbkVBzM3B-18" value="Formação" style="ellipse;shape=doubleEllipse;margin=3;whiteSpace=wrap;html=1;align=center;fillColor=#dae8fc;strokeColor=#6c8ebf;" vertex="1" parent="1">
          <mxGeometry x="500" y="544.5" width="100" height="40" as="geometry" />
        </mxCell>
        <mxCell id="GelH0xdzyuvzbkVBzM3B-26" value="Editora" style="whiteSpace=wrap;html=1;align=center;fillColor=#e1d5e7;strokeColor=#9673a6;" vertex="1" parent="1">
          <mxGeometry x="360" y="610" width="100" height="40" as="geometry" />
        </mxCell>
        <mxCell id="GelH0xdzyuvzbkVBzM3B-59" style="edgeStyle=orthogonalEdgeStyle;rounded=0;orthogonalLoop=1;jettySize=auto;html=1;exitX=0;exitY=0.5;exitDx=0;exitDy=0;entryX=1;entryY=0.5;entryDx=0;entryDy=0;endArrow=none;startFill=0;" edge="1" parent="1" source="GelH0xdzyuvzbkVBzM3B-28" target="GelH0xdzyuvzbkVBzM3B-26">
          <mxGeometry relative="1" as="geometry" />
        </mxCell>
        <mxCell id="GelH0xdzyuvzbkVBzM3B-28" value="Código" style="ellipse;whiteSpace=wrap;html=1;align=center;fontStyle=4;fillColor=#dae8fc;strokeColor=#6c8ebf;" vertex="1" parent="1">
          <mxGeometry x="497" y="610" width="100" height="40" as="geometry" />
        </mxCell>
        <mxCell id="GelH0xdzyuvzbkVBzM3B-60" style="edgeStyle=orthogonalEdgeStyle;rounded=0;orthogonalLoop=1;jettySize=auto;html=1;exitX=0;exitY=0.5;exitDx=0;exitDy=0;entryX=1;entryY=0.5;entryDx=0;entryDy=0;endArrow=none;startFill=0;" edge="1" parent="1" source="GelH0xdzyuvzbkVBzM3B-30" target="GelH0xdzyuvzbkVBzM3B-26">
          <mxGeometry relative="1" as="geometry">
            <Array as="points">
              <mxPoint x="480" y="690" />
              <mxPoint x="480" y="630" />
            </Array>
          </mxGeometry>
        </mxCell>
        <mxCell id="GelH0xdzyuvzbkVBzM3B-30" value="Nome" style="ellipse;whiteSpace=wrap;html=1;align=center;fillColor=#dae8fc;strokeColor=#6c8ebf;" vertex="1" parent="1">
          <mxGeometry x="497" y="670" width="100" height="40" as="geometry" />
        </mxCell>
        <mxCell id="GelH0xdzyuvzbkVBzM3B-61" style="edgeStyle=orthogonalEdgeStyle;rounded=0;orthogonalLoop=1;jettySize=auto;html=1;exitX=0;exitY=0.5;exitDx=0;exitDy=0;entryX=1;entryY=0.5;entryDx=0;entryDy=0;endArrow=none;startFill=0;" edge="1" parent="1" source="GelH0xdzyuvzbkVBzM3B-32" target="GelH0xdzyuvzbkVBzM3B-26">
          <mxGeometry relative="1" as="geometry">
            <Array as="points">
              <mxPoint x="480" y="755" />
              <mxPoint x="480" y="630" />
            </Array>
          </mxGeometry>
        </mxCell>
        <mxCell id="GelH0xdzyuvzbkVBzM3B-32" value="Emails" style="ellipse;shape=doubleEllipse;margin=3;whiteSpace=wrap;html=1;align=center;fillColor=#dae8fc;strokeColor=#6c8ebf;" vertex="1" parent="1">
          <mxGeometry x="497" y="734.5" width="100" height="40" as="geometry" />
        </mxCell>
        <mxCell id="GelH0xdzyuvzbkVBzM3B-63" style="edgeStyle=orthogonalEdgeStyle;rounded=0;orthogonalLoop=1;jettySize=auto;html=1;exitX=0;exitY=0.5;exitDx=0;exitDy=0;entryX=1;entryY=0.5;entryDx=0;entryDy=0;endArrow=none;startFill=0;" edge="1" parent="1" source="GelH0xdzyuvzbkVBzM3B-33" target="GelH0xdzyuvzbkVBzM3B-26">
          <mxGeometry relative="1" as="geometry">
            <Array as="points">
              <mxPoint x="480" y="820" />
              <mxPoint x="480" y="630" />
            </Array>
          </mxGeometry>
        </mxCell>
        <mxCell id="GelH0xdzyuvzbkVBzM3B-33" value="Endereço" style="ellipse;whiteSpace=wrap;html=1;align=center;fillColor=#dae8fc;strokeColor=#6c8ebf;" vertex="1" parent="1">
          <mxGeometry x="497" y="800" width="100" height="40" as="geometry" />
        </mxCell>
        <mxCell id="GelH0xdzyuvzbkVBzM3B-68" style="edgeStyle=orthogonalEdgeStyle;rounded=0;orthogonalLoop=1;jettySize=auto;html=1;exitX=0.5;exitY=0;exitDx=0;exitDy=0;entryX=0.5;entryY=1;entryDx=0;entryDy=0;endArrow=none;startFill=0;" edge="1" parent="1" source="GelH0xdzyuvzbkVBzM3B-35" target="GelH0xdzyuvzbkVBzM3B-33">
          <mxGeometry relative="1" as="geometry" />
        </mxCell>
        <mxCell id="GelH0xdzyuvzbkVBzM3B-35" value="Número" style="ellipse;whiteSpace=wrap;html=1;align=center;fillColor=#dae8fc;strokeColor=#6c8ebf;" vertex="1" parent="1">
          <mxGeometry x="263" y="900" width="100" height="40" as="geometry" />
        </mxCell>
        <mxCell id="GelH0xdzyuvzbkVBzM3B-67" style="edgeStyle=orthogonalEdgeStyle;rounded=0;orthogonalLoop=1;jettySize=auto;html=1;exitX=0.5;exitY=0;exitDx=0;exitDy=0;entryX=0.5;entryY=1;entryDx=0;entryDy=0;endArrow=none;startFill=0;" edge="1" parent="1" source="GelH0xdzyuvzbkVBzM3B-37" target="GelH0xdzyuvzbkVBzM3B-33">
          <mxGeometry relative="1" as="geometry" />
        </mxCell>
        <mxCell id="GelH0xdzyuvzbkVBzM3B-37" value="Rua" style="ellipse;whiteSpace=wrap;html=1;align=center;fillColor=#dae8fc;strokeColor=#6c8ebf;" vertex="1" parent="1">
          <mxGeometry x="380" y="900" width="100" height="40" as="geometry" />
        </mxCell>
        <mxCell id="GelH0xdzyuvzbkVBzM3B-64" style="edgeStyle=orthogonalEdgeStyle;rounded=0;orthogonalLoop=1;jettySize=auto;html=1;exitX=0.5;exitY=0;exitDx=0;exitDy=0;entryX=0.5;entryY=1;entryDx=0;entryDy=0;endArrow=none;startFill=0;" edge="1" parent="1" source="GelH0xdzyuvzbkVBzM3B-38" target="GelH0xdzyuvzbkVBzM3B-33">
          <mxGeometry relative="1" as="geometry" />
        </mxCell>
        <mxCell id="GelH0xdzyuvzbkVBzM3B-38" value="Cidade" style="ellipse;whiteSpace=wrap;html=1;align=center;fillColor=#dae8fc;strokeColor=#6c8ebf;" vertex="1" parent="1">
          <mxGeometry x="497" y="900" width="100" height="40" as="geometry" />
        </mxCell>
        <mxCell id="GelH0xdzyuvzbkVBzM3B-65" style="edgeStyle=orthogonalEdgeStyle;rounded=0;orthogonalLoop=1;jettySize=auto;html=1;exitX=0.5;exitY=0;exitDx=0;exitDy=0;entryX=0.5;entryY=1;entryDx=0;entryDy=0;endArrow=none;startFill=0;" edge="1" parent="1" source="GelH0xdzyuvzbkVBzM3B-39" target="GelH0xdzyuvzbkVBzM3B-33">
          <mxGeometry relative="1" as="geometry" />
        </mxCell>
        <mxCell id="GelH0xdzyuvzbkVBzM3B-39" value="Estado" style="ellipse;whiteSpace=wrap;html=1;align=center;fillColor=#dae8fc;strokeColor=#6c8ebf;" vertex="1" parent="1">
          <mxGeometry x="610" y="900" width="100" height="40" as="geometry" />
        </mxCell>
        <mxCell id="GelH0xdzyuvzbkVBzM3B-66" style="edgeStyle=orthogonalEdgeStyle;rounded=0;orthogonalLoop=1;jettySize=auto;html=1;exitX=0.5;exitY=0;exitDx=0;exitDy=0;entryX=0.5;entryY=1;entryDx=0;entryDy=0;endArrow=none;startFill=0;" edge="1" parent="1" source="GelH0xdzyuvzbkVBzM3B-40" target="GelH0xdzyuvzbkVBzM3B-33">
          <mxGeometry relative="1" as="geometry" />
        </mxCell>
        <mxCell id="GelH0xdzyuvzbkVBzM3B-40" value="CEP" style="ellipse;whiteSpace=wrap;html=1;align=center;fillColor=#dae8fc;strokeColor=#6c8ebf;" vertex="1" parent="1">
          <mxGeometry x="720" y="900" width="100" height="40" as="geometry" />
        </mxCell>
        <mxCell id="GelH0xdzyuvzbkVBzM3B-69" value="Cópia" style="shape=ext;margin=3;double=1;whiteSpace=wrap;html=1;align=center;fillColor=#e1d5e7;strokeColor=#9673a6;" vertex="1" parent="1">
          <mxGeometry x="360" y="90" width="100" height="40" as="geometry" />
        </mxCell>
      </root>
    </mxGraphModel>
  </diagram>
</mxfile>
